<svg width="256" height="30" viewBox="0 0 1971 230" fill="none" xmlns="http://www.w3.org/2000/svg">
<g clip-path="url(#clip0_31_378)">
<path d="M99.8765 170.008C74.9259 168.435 56.0444 146.931 57.6179 121.98C58.9666 101.451 73.877 84.4423 94.0322 80.4712C99.0523 79.572 102.649 75.3012 102.724 70.2062V28.7718C102.724 25.2503 99.8765 22.3281 96.3549 22.3281C96.2051 22.3281 96.0552 22.3281 95.9803 22.3281C39.3358 26.0745 -3.52219 75.0015 0.224135 131.646C3.97046 188.291 52.8975 231.149 109.542 227.402C159.443 224.105 199.754 185.368 204.999 135.617C205.523 130.222 201.552 125.427 196.082 124.903C195.783 124.903 195.483 124.903 195.183 124.903H156.896C152.175 124.903 148.129 128.274 147.23 132.995C143.184 155.548 122.804 171.507 99.8765 170.008Z" fill="#004446"/>
<path d="M196.083 22.1033H157.421C152.207 22.1033 147.98 26.33 147.98 31.544V70.2061C147.98 75.4201 152.207 79.6469 157.421 79.6469H196.083C201.297 79.6469 205.524 75.4201 205.524 70.2061V31.544C205.524 26.33 201.297 22.1033 196.083 22.1033Z" fill="#22C68A"/>
<path d="M405.352 56.4945V109.243H477.357V140.337H405.352V195.109H486.048V227.552H364.742V24.2012H486.048V56.4945H405.352Z" fill="#004446"/>
<path d="M518.266 6.2188C528.981 -2.02313 543.891 -2.02313 554.605 6.2188C559.176 10.2648 561.724 16.1091 561.499 22.2531C561.649 28.2472 559.101 34.0166 554.605 37.9877C543.891 46.3045 528.981 46.3045 518.266 37.9877C513.696 34.0166 511.148 28.2472 511.298 22.2531C511.148 16.184 513.621 10.2648 518.266 6.2188ZM556.554 68.0332V227.552H516.018V68.0332H556.554Z" fill="#004446"/>
<path d="M788.303 200.653C782.758 209.719 774.741 216.987 765.225 221.708C753.687 227.327 740.874 230.024 728.062 229.65C714.8 229.875 701.688 227.402 689.475 222.307C678.685 217.811 669.244 210.469 662.276 201.103C655.383 191.662 651.337 180.498 650.588 168.809H693.82C694.57 176.602 698.091 183.945 703.711 189.414C709.855 195.109 718.022 198.031 726.338 197.656C733.457 198.106 740.5 195.708 745.819 190.913C750.39 186.267 752.788 179.974 752.563 173.455C752.788 167.686 750.914 162.066 747.168 157.72C743.347 153.45 738.626 150.078 733.307 147.83C727.762 145.357 720.045 142.435 710.304 139.139C699.665 135.767 689.25 131.571 679.135 126.626C670.893 122.355 663.85 116.211 658.53 108.643C652.536 99.5024 649.539 88.7129 650.063 77.7737C649.389 61.8143 656.357 46.4543 668.87 36.4142C683.256 25.6997 700.938 20.3799 718.846 21.2041C737.278 20.23 755.485 25.7746 770.245 36.7888C782.908 46.9788 790.775 62.0391 791.974 78.2981H748.142C747.168 71.4049 743.946 65.1111 738.926 60.3158C733.307 55.3706 725.964 52.8231 718.471 53.2727C711.878 52.973 705.434 55.0709 700.339 59.1919C691.797 67.9583 691.123 81.6698 698.765 91.1855C702.512 95.3065 707.082 98.6032 712.177 100.851C719.52 104.073 727.013 106.845 734.58 109.243C745.445 112.914 756.084 117.26 766.424 122.205C774.816 126.401 781.934 132.695 787.329 140.337C793.473 149.703 796.47 160.792 795.945 172.031C795.945 182.071 793.323 191.962 788.153 200.653H788.303Z" fill="#004446"/>
<path d="M941.677 75.7506C953.965 82.1943 964.08 92.0846 970.898 104.148C978.241 117.485 981.987 132.545 981.613 147.83C981.987 163.04 978.241 178.025 970.898 191.362C964.08 203.425 953.89 213.241 941.677 219.759C915.303 233.021 884.208 233.021 857.834 219.759C845.621 213.241 835.431 203.425 828.613 191.362C821.195 178.1 817.523 163.04 817.898 147.83C817.523 132.545 821.27 117.485 828.613 104.148C835.431 92.0846 845.546 82.1943 857.834 75.7506C884.283 62.7134 915.228 62.7134 941.677 75.7506ZM870.946 113.064C862.479 122.58 858.284 135.092 859.183 147.83C858.284 160.493 862.554 173.005 870.946 182.521C886.831 198.405 912.605 198.48 928.49 182.596C928.49 182.596 928.49 182.596 928.565 182.521C937.031 173.005 941.302 160.493 940.403 147.83C941.302 135.092 937.031 122.58 928.565 113.064C912.68 97.1796 886.905 97.1047 871.021 112.989C871.021 112.989 871.021 112.989 870.946 113.064Z" fill="#004446"/>
<path d="M1051.14 14.4607V227.552H1010.46V14.4607H1051.14Z" fill="#004446"/>
<path d="M1240.63 68.0332V227.552H1200.02V195.259C1196.05 205.748 1188.71 214.59 1179.12 220.434C1169 226.578 1157.39 229.725 1145.55 229.5C1128.92 230.249 1112.73 223.581 1101.5 211.368C1089.81 197.132 1083.96 178.999 1085.09 160.642V68.0332H1125.4V156.222C1124.72 167.011 1128.24 177.576 1135.21 185.818C1142.11 193.011 1151.77 196.832 1161.74 196.308C1172.23 196.832 1182.42 192.711 1189.68 185.069C1197.1 176.002 1200.77 164.464 1200.02 152.85V68.0332H1240.71H1240.63Z" fill="#004446"/>
<path d="M1362.84 192.786V227.777H1341.56C1326.72 228.826 1312.04 224.18 1300.5 214.814C1291.06 206.198 1286.26 191.737 1286.19 171.582V102.275H1264.01V67.9583H1286.19V28.6218H1326.8V68.0332H1362.54V102.35H1326.8V172.106C1326.2 177.876 1327.85 183.645 1331.44 188.215C1335.87 191.737 1341.41 193.385 1346.95 192.786H1362.84Z" fill="#004446"/>
<path d="M1394.23 6.2188C1404.95 -2.02313 1419.86 -2.02313 1430.57 6.2188C1435.14 10.2648 1437.69 16.1091 1437.47 22.2531C1437.62 28.2472 1435.07 34.0166 1430.57 37.9877C1419.86 46.3045 1404.95 46.3045 1394.23 37.9877C1389.66 34.0915 1387.12 28.2472 1387.27 22.2531C1387.12 16.1091 1389.66 10.2648 1394.23 6.2188ZM1432.52 68.0332V227.552H1391.91V68.0332H1432.52Z" fill="#004446"/>
<path d="M1585.07 75.7506C1597.36 82.1943 1607.47 92.0846 1614.29 104.148C1621.63 117.485 1625.38 132.545 1625.01 147.83C1625.38 163.04 1621.71 178.025 1614.29 191.362C1607.47 203.425 1597.28 213.241 1585.07 219.759C1558.7 233.021 1527.6 233.021 1501.23 219.759C1489.01 213.241 1478.82 203.425 1472.01 191.362C1464.59 178.1 1460.92 163.04 1461.29 147.83C1460.99 132.545 1464.66 117.485 1472.01 104.148C1478.82 92.0846 1488.94 82.1943 1501.23 75.7506C1527.6 62.7134 1558.62 62.7134 1585 75.7506H1585.07ZM1514.34 113.064C1505.87 122.58 1501.68 135.092 1502.58 147.83C1501.68 160.493 1505.95 173.005 1514.34 182.521C1530.22 198.405 1556 198.48 1571.88 182.596C1571.88 182.596 1571.88 182.596 1571.96 182.521C1580.43 173.005 1584.62 160.493 1583.72 147.83C1584.62 135.167 1580.35 122.58 1571.96 113.064C1556.07 97.1796 1530.3 97.1047 1514.41 112.989C1514.41 112.989 1514.41 112.989 1514.34 113.064Z" fill="#004446"/>
<path d="M1792.99 83.8428C1804.68 98.2287 1810.6 116.436 1809.4 134.943V227.552H1769.02V139.438C1769.69 128.649 1766.17 118.084 1759.2 109.842C1752.16 102.649 1742.34 98.8281 1732.3 99.3526C1721.89 98.903 1711.77 103.024 1704.65 110.592C1697.24 119.658 1693.49 131.196 1694.31 142.885V227.552H1653.85V68.0333H1694.46V100.027C1698.44 89.5372 1705.78 80.6959 1715.29 74.7767C1725.41 68.6327 1737.02 65.4858 1748.86 65.7106C1765.57 64.9613 1781.68 71.6298 1792.99 83.9177V83.8428Z" fill="#004446"/>
<path d="M1946.89 80.6957C1958.73 90.7359 1966.52 104.672 1968.77 120.032H1930.78C1929.51 112.914 1925.84 106.396 1920.44 101.6C1914.52 96.8049 1907.03 94.3323 1899.39 94.707C1893.62 94.3323 1887.85 96.0557 1883.28 99.5772C1879.46 102.874 1877.29 107.744 1877.51 112.839C1877.29 116.96 1879.01 120.931 1882.08 123.554C1885.45 126.401 1889.42 128.574 1893.62 129.848C1898.19 131.421 1904.86 133.219 1913.47 135.242C1923.52 137.34 1933.41 140.187 1943.07 143.709C1950.64 146.631 1957.38 151.426 1962.7 157.57C1968.4 165.063 1971.24 174.279 1970.79 183.645C1971.09 196.607 1965.17 208.97 1954.83 216.762C1942.4 225.829 1927.19 230.324 1911.83 229.425C1894.14 230.324 1876.61 225.379 1862 215.414C1849.26 205.748 1841.1 191.362 1839.22 175.478H1878.11C1878.78 182.821 1882.61 189.564 1888.45 194.06C1895.27 198.855 1903.51 201.178 1911.83 200.803C1917.6 201.178 1923.22 199.379 1927.71 195.783C1931.31 192.411 1933.26 187.616 1933.11 182.671C1933.26 178.4 1931.53 174.279 1928.39 171.432C1924.94 168.435 1920.97 166.112 1916.62 164.763C1911.9 163.265 1905.23 161.467 1896.62 159.369C1886.8 157.271 1877.14 154.498 1867.62 151.127C1860.2 148.354 1853.68 143.709 1848.59 137.715C1842.89 130.522 1840.05 121.531 1840.65 112.39C1840.35 99.2775 1846.19 86.7648 1856.53 78.6727C1869.19 69.3818 1884.7 64.8113 1900.36 65.7104C1917.22 64.9611 1933.78 70.206 1947.12 80.5459L1946.89 80.6957Z" fill="#004446"/>
</g>
<defs>
<clipPath id="clip0_31_378">
<rect width="1970.79" height="229.65" fill="white"/>
</clipPath>
</defs>
</svg>
